<?xml version="1.0" standalone="no"?>
<!DOCTYPE svg PUBLIC "-//W3C//DTD SVG 20010904//EN"
 "http://www.w3.org/TR/2001/REC-SVG-20010904/DTD/svg10.dtd">
<svg version="1.0" xmlns="http://www.w3.org/2000/svg"
 width="636.000000pt" height="609.000000pt" viewBox="0 0 636.000000 609.000000"
 preserveAspectRatio="xMidYMid meet">

<g transform="translate(0.000000,609.000000) scale(0.100000,-0.100000)"
fill="#000000" stroke="none">
<path d="M1168 4621 l-33 -29 0 -1301 0 -1301 28 -27 27 -28 848 -5 c934 -6
865 -1 959 -69 51 -37 90 -93 114 -164 17 -50 18 -10 18 1302 1 1503 5 1418
-65 1514 -19 26 -53 61 -76 77 -84 61 -62 60 -965 60 l-823 0 -32 -29z m1540
-447 c26 -18 29 -56 6 -78 -14 -14 -81 -16 -589 -16 l-574 0 -15 22 c-21 30
-20 44 4 68 20 20 33 20 583 20 493 0 565 -2 585 -16z m6 -410 c21 -20 20 -53
-1 -76 -15 -17 -47 -18 -585 -18 -555 0 -568 0 -588 20 -24 24 -25 38 -4 68
l15 22 574 0 c508 0 575 -2 589 -16z m-6 -400 c24 -16 28 -44 12 -75 -10 -18
-27 -19 -590 -19 l-579 0 -15 22 c-21 30 -20 44 4 68 20 20 33 20 583 20 493
0 565 -2 585 -16z m6 -410 c21 -20 20 -53 -1 -76 -15 -17 -47 -18 -585 -18
-555 0 -568 0 -588 20 -24 24 -25 38 -4 68 l15 22 574 0 c508 0 575 -2 589
-16z"/>
<path d="M3473 4636 c-88 -28 -167 -98 -207 -185 l-21 -46 -2 -1380 c-2 -1159
0 -1373 11 -1338 31 99 91 169 182 214 49 24 53 24 427 29 l378 5 -26 34 c-32
45 -65 132 -65 176 0 104 92 184 211 185 l56 0 -90 243 c-84 224 -91 248 -92
317 0 66 4 82 31 130 103 184 359 153 449 -54 12 -28 41 -104 65 -169 39 -107
46 -118 64 -112 41 13 135 17 164 7 24 -8 38 -6 79 14 27 14 72 27 101 31 l52
6 -2 924 -3 925 -33 29 -32 29 -828 -1 c-651 0 -836 -3 -869 -13z m1347 -466
c24 -24 26 -53 4 -74 -14 -14 -81 -16 -586 -16 -518 0 -573 2 -590 17 -24 21
-23 48 2 73 20 20 33 20 585 20 552 0 565 0 585 -20z m4 -406 c21 -20 20 -53
-1 -76 -15 -17 -47 -18 -585 -18 -555 0 -568 0 -588 20 -24 24 -25 38 -4 68
l15 22 574 0 c508 0 575 -2 589 -16z m-524 -404 c24 -24 25 -47 3 -72 -15 -17
-38 -18 -326 -18 -275 0 -313 2 -329 17 -24 21 -23 48 2 73 19 19 33 20 325
20 292 0 306 -1 325 -20z"/>
<path d="M4402 3043 c-62 -30 -100 -117 -84 -190 5 -21 64 -185 131 -366 66
-180 121 -330 121 -333 0 -3 -14 6 -31 21 -111 93 -252 98 -294 9 -18 -39 -10
-85 26 -144 62 -101 343 -483 398 -542 105 -112 222 -190 351 -234 74 -25 248
-26 340 -1 123 33 226 92 310 176 123 123 178 267 166 433 -7 107 -19 149 -98
348 -106 268 -160 373 -203 400 -48 29 -144 25 -177 -7 l-21 -22 -34 26 c-66
51 -189 38 -229 -22 l-14 -22 -47 23 c-25 13 -56 24 -67 24 -41 0 -97 -22
-129 -50 l-33 -29 -49 132 c-92 253 -108 290 -139 325 -53 60 -128 78 -194 45z"/>
</g>
</svg>
